<svg xmlns="http://www.w3.org/2000/svg" width="32" height="32" viewBox="0 0 48 48">
  <defs>
    <linearGradient id="g" x1="0%" y1="0%" x2="100%" y2="100%">
      <stop offset="0%" stop-color="#6366f1"/>
      <stop offset="100%" stop-color="#a855f7"/>
    </linearGradient>
  </defs>
  <rect x="2" y="2" width="44" height="44" rx="12" fill="url(#g)"/>
  <path d="M33 24c0-3.5-2.5-6-6-6-2.5 0-4.5 1.5-6 3.5-1.5-2-3.5-3.5-6-3.5-3.5 0-6 2.5-6 6s2.5 6 6 6c2.5 0 4.5-1.5 6-3.5 1.5 2 3.5 3.5 6 3.5 3.5 0 6-2.5 6-6z" stroke="white" stroke-width="2.5" stroke-linecap="round" fill="none"/>
  <circle cx="15" cy="24" r="1.5" fill="white" opacity="0.8"/>
  <circle cx="33" cy="24" r="1.5" fill="white" opacity="0.8"/>
</svg>
